<mxfile host="65bd71144e">
    <diagram id="HIP3nbAZw_EuaXWnEj3U" name="Page-1">
        <mxGraphModel dx="911" dy="645" grid="1" gridSize="10" guides="1" tooltips="1" connect="1" arrows="1" fold="1" page="1" pageScale="1" pageWidth="850" pageHeight="1100" math="0" shadow="0">
            <root>
                <mxCell id="0"/>
                <mxCell id="1" parent="0"/>
                <mxCell id="7" value="http://ics2o.mths.ca" style="swimlane;whiteSpace=wrap;html=1;" parent="1" vertex="1">
                    <mxGeometry x="70" y="70" width="810" height="680" as="geometry"/>
                </mxCell>
                <mxCell id="9" value="&lt;font face=&quot;Georgia&quot;&gt;&lt;span style=&quot;font-size: 48px;&quot;&gt;Weather&lt;/span&gt;&lt;/font&gt;" style="rounded=1;whiteSpace=wrap;html=1;fillColor=#a0522d;fontColor=#ffffff;strokeColor=#6D1F00;align=center;" parent="7" vertex="1">
                    <mxGeometry y="20" width="810" height="60" as="geometry"/>
                </mxCell>
                <mxCell id="10" value="&lt;font color=&quot;#ffb366&quot;&gt;&lt;span style=&quot;font-family: Helvetica, Arial, sans-serif; font-size: 14px; text-align: start;&quot;&gt;The weather is Clear with clear sky&lt;br&gt;&lt;/span&gt;&lt;span style=&quot;font-family: Helvetica, Arial, sans-serif; font-size: 14px; text-align: start;&quot;&gt;The temperature right now is 28°C but it feels like 28°C&lt;/span&gt;&lt;/font&gt;" style="text;strokeColor=none;align=center;fillColor=none;html=1;verticalAlign=middle;whiteSpace=wrap;rounded=0;fontFamily=Georgia;fontSize=48;" parent="7" vertex="1">
                    <mxGeometry x="158" y="330" width="445" height="220" as="geometry"/>
                </mxCell>
                <mxCell id="12" value="" style="shape=image;imageAspect=0;aspect=fixed;verticalLabelPosition=bottom;verticalAlign=top;fontColor=#FFFFFF;image=data:image/png,iVBORw0KGgoAAAANSUhEUgAAAGQAAABkCAYAAABw4pVUAAADe0lEQVR4nO3cWahNURzH8a8picg1hqLEC4UMGe6DKfMDhaQkojwpRZQHxZs3PChSui+elGSWkHnMTB5MV0mUISQUrSy6xO24Z6//f+38PnW6t+5t/9Y5v3P2uPZBRERERERERERERERERERERERERMRMM6ugl8tnFLWoGqAWGAoMBHoAHePfmgNvgBfATeA6cAZ4XERw5837ilhMo1omTyhGf2AiMB6YArStYKlTG/x+Agiv5mngQs5PNPdC+gDrgQVVLmdsfATHgbXAuQLGV7jmOQ4K6ALUAQ8KKON344CzwDFgeMHLrlqOhcwD7sQiUm7jwurvIrAqYcY/y62QbcCusP00zNwInMpl9Z1TIYeApU7ZtfFT2dsp/6ccCmkZN7STncfRL67CXEvJoZDDDfaAvHUFznuuvrwL2R43rjnpDlwCWnmMybOQWcASx/zGDAY2eAR7FdIe2OmUXanVHqtSr0K2x1JyZ/6m8SikEzDXIbcpwh7XdMtAj0K2OmRWYwfQwirMupDwjptjnFmtbsAkqzDrQqZW8D85mmY1JutCphjnFWW+1cGiZSHtrDeQBaqJp+2TsyxkbImuUP6JyafbspCRhlkpDLEIsSxkgGFWCl0sQiwL6WmYlUIlEyuqZllIB8OsFFpbhFgW8tUwq7QsC8l1hktWLF+k9yV4PRrzxSLEspBnhlkpvLMIsSzknmFWCq8tQiwLuWyYlcIdixDLQo4ZZqVw1CLEspDncfZ5GX2KE/mSs94V3VvSQnYDby2CrAsx+dgnsN8qyLqQa3G6Zpl8Bg5Yjdfj6HmxQ2Y1wu0Kr6zCPAq5XaJd4A/AJstAr/NLi5xy/9Vy60CvQm4Ba5yyK7Unzsky5XkGdmO81y9H4dbqZR7j8iwkXB8ZA9Q7juFvRsUDWXM5XKMYHb5XIINx/BDu5LrrFZ5DIU+BEcCjDMYS5o0d8RxALlfxHsZZKVed8sNxxiDLA8C/yemyatjnHxm/ucFSXbxj6obv0/8ut+vc4TTFujhL8ErirPp4nLEQeJI4q2K5TjwId+YOA2YD9wtedjhruxLoC2wpeNlVy32u7e74mAlMiD97NWE57+KBXthgH8xsr+4XZZn8vCc+VjT4mqYhcXpnmFXfJv5f+G6Uj3F79DJedj0Zr1ZmW4KIiIiIiIiIiIiIiIiIiIiIiIjI/wH4BqdEdDZEJK4oAAAAAElFTkSuQmCC;" parent="7" vertex="1">
                    <mxGeometry x="285" y="140" width="220" height="220" as="geometry"/>
                </mxCell>
            </root>
        </mxGraphModel>
    </diagram>
</mxfile>